<?xml version="1.0" standalone="no"?>
<!DOCTYPE svg PUBLIC "-//W3C//DTD SVG 20010904//EN"
 "http://www.w3.org/TR/2001/REC-SVG-20010904/DTD/svg10.dtd">
<svg version="1.0" xmlns="http://www.w3.org/2000/svg"
 width="1280.000000pt" height="1280.000000pt" viewBox="0 0 1280.000000 1280.000000"
 preserveAspectRatio="xMidYMid meet">
<metadata>
Created by potrace 1.14, written by Peter Selinger 2001-2017
</metadata>
<g transform="translate(0.000000,1280.000000) scale(0.100000,-0.100000)"
fill="#000000" stroke="none">
<path d="M4917 10944 c-1 -1 -60 -4 -132 -7 -281 -14 -651 -106 -857 -214
-163 -86 -353 -248 -466 -398 -45 -61 -153 -259 -189 -350 -135 -337 -255
-770 -400 -1440 -24 -115 -46 -217 -48 -225 -2 -8 -4 -23 -4 -32 -1 -15 -11
-18 -64 -18 -226 0 -400 -190 -384 -419 5 -72 43 -181 68 -197 19 -12 7 -23
-33 -29 -111 -17 -511 -112 -678 -160 -588 -170 -925 -356 -1029 -567 -119
-242 60 -472 523 -673 290 -126 672 -234 1201 -341 11 -2 47 -9 80 -14 118
-20 107 -8 98 -108 -15 -167 -9 -508 11 -617 32 -175 79 -322 147 -456 l28
-57 -21 -18 c-85 -76 -179 -266 -219 -439 -18 -79 -20 -251 -4 -340 33 -184
129 -385 252 -524 l52 -59 -80 -97 c-94 -113 -158 -178 -251 -252 -57 -45 -68
-59 -68 -84 0 -45 14 -64 62 -82 128 -48 306 -78 463 -78 l114 0 -18 -52 c-30
-86 -60 -139 -112 -194 -55 -59 -61 -88 -26 -128 45 -52 330 -87 517 -64 118
15 246 55 365 114 l110 55 17 -22 c32 -42 51 -119 52 -214 1 -77 4 -96 21
-114 19 -21 26 -22 120 -17 192 11 391 82 532 191 l71 54 154 -77 c343 -173
702 -274 1128 -315 121 -12 578 -14 650 -3 19 4 62 9 95 12 33 3 85 10 115 15
30 5 73 12 95 15 123 18 409 97 560 155 205 79 408 185 579 303 l80 55 40 -28
c162 -111 428 -191 644 -194 92 -1 94 0 119 28 21 25 24 36 18 70 -18 105 -20
135 -13 184 3 30 9 56 12 59 3 3 33 -6 68 -20 141 -55 331 -79 479 -58 158 22
344 83 377 124 23 27 22 73 -2 108 -47 71 -77 198 -91 386 l-6 82 59 73 c160
197 244 437 237 678 -7 225 -109 508 -232 641 l-23 25 50 96 c87 165 146 378
169 608 14 131 6 400 -14 537 -3 19 4 23 88 38 719 128 1306 318 1612 520 89
59 187 161 221 230 25 51 29 72 29 140 0 66 -5 90 -27 137 -130 277 -689 522
-1656 724 -22 4 -22 5 -6 35 77 151 46 337 -78 458 -62 61 -153 103 -237 109
l-69 5 -7 51 c-20 148 -138 626 -229 933 -165 551 -375 933 -701 1271 -255
265 -611 424 -1050 470 -132 13 -646 4 -674 -12 -3 -2 -38 -7 -77 -10 -39 -4
-80 -8 -90 -10 -11 -2 -41 -7 -69 -10 -91 -13 -337 -56 -510 -91 -93 -18 -185
-36 -204 -39 -20 -3 -113 11 -225 34 -456 93 -802 136 -1139 144 -38 0 -69 0
-70 0z m4994 -6431 c54 -72 57 -84 8 -29 -50 55 -64 76 -52 76 5 0 25 -21 44
-47z"/>
</g>
</svg>
